<?xml version="1.0" encoding="iso-8859-1"?>
<!-- Generator: Adobe Illustrator 19.0.0, SVG Export Plug-In . SVG Version: 6.00 Build 0)  -->
<svg version="1.1" id="Capa_1" xmlns="http://www.w3.org/2000/svg" xmlns:xlink="http://www.w3.org/1999/xlink" x="0px" y="0px"
	 viewBox="0 0 490 490" style="enable-background:new 0 0 490 490;" xml:space="preserve">
<g>
	<g>
		<path d="M440,0H50C21.9,0,0,22.9,0,50v390c0,28.1,22.9,50,50,50h390c28.1,0,50-21.9,50-50V50C490,21.9,467.1,0,440,0z M449.3,440
			c0,5.2-4.2,9.4-9.4,9.4H50c-5.2,0-9.4-4.2-9.4-9.4V50c0-5.2,4.2-9.4,9.4-9.4h390c5.2,0,9.4,4.2,9.4,9.4v390H449.3z"/>
		<path d="M124.1,106.3c-11.5,0-20.9,9.4-20.9,20.9v234.6c0,11.5,9.4,20.9,20.9,20.9s19.8-9.4,20.9-20.9V127.2
			C144.9,115.7,135.5,106.3,124.1,106.3z"/>
		<path d="M245,106.3c-11.5,0-20.9,9.4-20.9,20.9v234.6c0,11.5,9.4,20.9,20.9,20.9s20.9-9.4,20.9-20.9V127.2
			C265.9,115.7,256.5,106.3,245,106.3z"/>
		<path d="M365.9,106.3c-11.5,0-20.9,9.4-20.9,20.9v234.6c0,11.5,9.4,20.9,20.9,20.9s20.9-9.4,20.9-20.9V127.2
			C386.8,115.7,377.4,106.3,365.9,106.3z"/>
	</g>
</g>
<g>
</g>
<g>
</g>
<g>
</g>
<g>
</g>
<g>
</g>
<g>
</g>
<g>
</g>
<g>
</g>
<g>
</g>
<g>
</g>
<g>
</g>
<g>
</g>
<g>
</g>
<g>
</g>
<g>
</g>
</svg>
